# xmcd CD database file
#
# Track frame offsets:
#	150
#	8342
#	42714
#	66001
#	90313
#	106315
#	130257
#	155354
#	174201
#	199033
#	226545
#	241147
#	263164
#	279261
#
# Disc length: 3948 seconds
#
# Revision: 5
# Processed by: cddbd v1.5.1PL0 Copyright (c) Steve Scherf et al.
# Submitted via: CDex 1.40Release
#
DISCID=a00f6a0e
DTITLE=Hösty Duö - Golden Country Hits
DYEAR=2003
DGENRE=Country
TTITLE0=Guitar-O
TTITLE1=Cleveland County Cage Live (Phoenix, AZ 2002)
TTITLE2=Wrote You A Letter (Phoenix, AZ 2002)
TTITLE3=Save Some Love (Phoenix, AZ 2002)
TTITLE4=Truck Stop Shower Stall (Phoenix, AZ 2002)
TTITLE5=Johnny Cash
TTITLE6=Applesauce
TTITLE7=Molokai Cowboy
TTITLE8=The General
TTITLE9=The General II
TTITLE10=Que Haya
TTITLE11=Gunfighter
TTITLE12=Destination Hawaii
TTITLE13=Tiki Lounge
EXTD=YEAR: 2003 ID3G: 2
EXTT0=
EXTT1=
EXTT2=
EXTT3=
EXTT4=
EXTT5=
EXTT6=
EXTT7=
EXTT8=
EXTT9=
EXTT10=
EXTT11=
EXTT12=
EXTT13=
PLAYORDER=
